<?xml version="1.0" encoding="UTF-8"?>
<svg width="1058px" height="237px" viewBox="0 0 1058 237" version="1.1" xmlns="http://www.w3.org/2000/svg" xmlns:xlink="http://www.w3.org/1999/xlink">
    <title>编组</title>
    <defs>
        <linearGradient x1="-0.828097821%" y1="7.73615868%" x2="57.6359644%" y2="78.354213%" id="linearGradient-1">
            <stop stop-color="#41D1FF" offset="0%"></stop>
            <stop stop-color="#BD34FE" offset="100%"></stop>
        </linearGradient>
        <linearGradient x1="43.3284731%" y1="2.24179788%" x2="50.3181515%" y2="89.0299051%" id="linearGradient-2">
            <stop stop-color="#FFEA83" offset="0%"></stop>
            <stop stop-color="#FFDD35" offset="8.33333%"></stop>
            <stop stop-color="#FFA800" offset="100%"></stop>
        </linearGradient>
    </defs>
    <g id="页面-1" stroke="none" stroke-width="1" fill="none" fill-rule="evenodd">
        <g id="编组">
            <g id="logo" fill-rule="nonzero">
                <path d="M236.215775,35.0252419 L124.884989,233.905778 C122.586346,238.011893 116.68091,238.036071 114.347778,233.949904 L0.809532519,35.0444034 C-1.73224352,30.5915085 2.07926184,25.197828 7.1302856,26.0997467 L118.580209,46.0009534 C119.291161,46.1278906 120.019054,46.1266816 120.730006,45.9972662 L229.849279,26.1282773 C234.883421,25.2116702 238.712879,30.5635823 236.215775,35.0252419 Z" id="路径" fill="url(#linearGradient-1)"></path>
                <path d="M171.168752,0.0583859386 L88.5343553,16.192487 C87.1761712,16.4576516 86.170581,17.6045414 86.088653,18.9809179 L81.005476,104.52513 C80.8859218,106.540018 82.7429564,108.103794 84.7165108,107.650263 L107.723106,102.35967 C109.875688,101.865019 111.820719,103.754127 111.378308,105.911122 L104.543086,139.262598 C104.083075,141.507276 106.198031,143.42662 108.397949,142.760836 L122.607905,138.458941 C124.810858,137.792553 126.927634,139.717339 126.461555,141.96383 L115.599117,194.351524 C114.919418,197.628438 119.293766,199.415351 121.118029,196.605877 L122.336632,194.729467 L189.671734,60.8301183 C190.799306,58.5881623 188.854882,56.031758 186.383691,56.5069378 L162.702252,61.0611169 C160.476845,61.4886457 158.583398,59.4235669 159.211513,57.2540549 L174.667988,3.86350684 C175.296709,1.6903364 173.396586,-0.376531757 171.168752,0.0583859386 Z" id="路径" fill="url(#linearGradient-2)"></path>
            </g>
            <text id="Vite-Docs" font-family="Copperplate" font-size="144" font-weight="normal" letter-spacing="6.563372" fill="#000000">
                <tspan x="306" y="156">Vite Docs</tspan>
            </text>
        </g>
    </g>
</svg>