<?xml version="1.0" encoding="UTF-8"?>
<svg width="464px" height="309px" viewBox="0 0 464 309" version="1.1" xmlns="http://www.w3.org/2000/svg" xmlns:xlink="http://www.w3.org/1999/xlink">
    <title>logo-vitdoc-v</title>
    <g id="页面-1" stroke="none" stroke-width="1" fill="none" fill-rule="evenodd">
        <g id="logo-vitdoc-v" transform="translate(2.000000, 0.000000)">
            <g id="title" transform="translate(0.000000, 216.480960)" fill-rule="nonzero" stroke-width="1.67">
                <g id="path182962" transform="translate(0.000000, 7.651280)" fill="#000000" stroke="#000000">
                    <polygon id="路径" points="85.0493091 0 53.0078207 78.6942577 51.10868 83.3479131 33.9300246 83.3479131 32.7370434 80.4258139 32.0308839 78.694241 0 0 23.1516776 0 42.5181332 51.0630222 61.8976315 0"></polygon>
                </g>
                <g id="path182964" transform="translate(104.057873, 1.519040)">
                    <polygon id="路径" stroke="#000000" fill="#000000" points="1.0099158 89.5900224 1.0099158 32.9894138 20.6898972 32.9894138 20.6898972 89.5900224"></polygon>
                    <path d="M0,11.2541467 C0,5.039559 4.8819778,0 10.903931,0 C16.9275041,0 21.8094819,5.039559 21.8094819,11.2541467 C21.8094819,17.4699702 16.9275041,22.5095292 10.903931,22.5095292 C4.8819778,22.5095292 0,17.4699535 0,11.2541467 Z" id="路径" stroke="#36C8AF" fill="#36C8AF"></path>
                </g>
                <g id="path182966" transform="translate(153.603095, 14.510960)">
                    <path d="M29.6343504,28.2203781 C29.6343504,22.0059908 34.5163282,16.9662314 40.5399013,16.9662314 C46.5618545,16.9662314 51.4438323,22.0059908 51.4438323,28.2203781 C51.4438323,34.4362016 46.5618545,39.4747419 40.5399013,39.4747419 C34.5163282,39.4747419 29.6343504,34.4362016 29.6343504,28.2203781 Z" id="路径" stroke="#36C8AF" fill="#36C8AF"></path>
                    <path d="M35.8161226,59.3591981 L35.8161226,75.6891929 C24.2941079,75.6891929 6.2094942,73.2590089 6.2094942,53.5559815 L6.2094942,34.3436502 L0,34.3436502 L0,16.9902794 L6.2094942,16.9902794 L6.2094942,0 L25.8882565,0 L25.8882565,50.103674 C25.8882732,53.4754708 27.7172739,59.3591981 35.8161226,59.3591981 Z" id="路径" stroke="#000000" fill="#000000"></path>
                </g>
                <g id="path182968" transform="translate(233.211720, 0.000000)" fill="#000000" stroke="#000000">
                    <path d="M44.674337,0 L64.3543184,0 L64.3543184,89.1356321 L44.674337,89.1356321 L44.674337,84.2293892 C39.9521782,88.5860184 33.8806928,91.2076345 27.2573726,91.2076345 C12.2031075,91.2076345 0,77.6782297 0,60.9886338 C0,44.2990379 12.2031075,30.7696331 27.2573726,30.7696331 C33.8806928,30.7696331 39.9521782,33.3924683 44.674337,37.7466593 L44.674337,0 Z M44.674337,60.9886338 C44.674337,53.8061308 39.5732051,47.9823231 32.6852734,47.9823231 C25.7973417,47.9823231 20.2140975,53.8061141 20.2140975,60.9886338 C20.2140975,68.1723726 25.7973417,73.9961636 32.6852734,73.9961636 C39.5732051,73.9961636 44.674337,68.1711368 44.674337,60.9886338 Z" id="形状"></path>
                </g>
                <g id="path182970" transform="translate(316.832418, 29.420720)" fill="#000000" stroke="#000000">
                    <path d="M66.2340871,30.3969726 C66.2340871,47.1850317 53.1505222,60.9466333 33.1162336,60.9466333 C13.0827633,60.9466333 0,47.1850317 0,30.3969726 C0,13.6086964 13.0827466,0 33.1162336,0 C53.1505222,0 66.2340871,13.6086964 66.2340871,30.3969726 Z M45.6926028,30.4726069 C45.6926028,23.2107956 40.0620642,17.3233943 33.1162336,17.3233943 C26.1712213,17.3233943 20.5406827,23.2107956 20.5406827,30.4726069 C20.5406827,37.7358377 26.1712213,43.623239 33.1162336,43.623239 C40.0620642,43.623239 45.6926028,37.7358377 45.6926028,30.4726069 Z" id="形状"></path>
                </g>
                <g id="path182972" transform="translate(399.754220, 29.540960)" fill="#000000" stroke="#000000">
                    <path d="M60.5269122,38.9526832 C60.5269122,44.6957464 56.5190792,60.7949806 31.3977201,60.7949806 C7.3005553,60.7949806 0,42.8019163 0,30.6734077 C0,21.4404954 4.5085157,0 30.6434479,0 C50.4983451,0 58.0149817,12.8305766 59.5769327,21.8408779 L42.060286,21.8408779 C42.060286,17.5191016 38.7410775,12.9437191 30.262237,12.9437191 C25.2457073,12.9437191 19.8426728,17.8907267 19.8426728,28.6651993 C19.8426728,35.4112478 21.8690174,46.6715234 31.5045333,46.6715234 C37.4221115,46.6715234 41.2904995,43.7204831 41.66316,38.9526665 L60.5269122,38.9526665 L60.5269122,38.9526832 Z" id="路径"></path>
                </g>
            </g>
            <g id="编组-2" transform="translate(163.000000, 0.000000)">
                <path d="M122.74471,55.4256224 C128.40855,51.869087 133,55.196136 133,62.8567942 L133,62.8567942 L133,143.212056 C133,150.872714 128.40855,156.577181 122.74471,155.953339 L122.74471,155.953339 L70.0537393,150.14971 C68.8044127,150.012104 67.6072636,149.72911 66.5000598,149.330439 C65.3934593,149.728939 64.1959645,150.012062 62.9462607,150.14971 L10.2552897,155.953339 C4.59144958,156.577181 0,150.872714 0,143.212056 L0,62.8567942 C0,55.196136 4.59144958,51.869087 10.2552897,55.4256224 L62.9462607,88.5122379 C64.1958261,89.2968863 65.393194,90.1999504 66.5005751,91.1721351 C67.6075299,90.1994044 68.8045517,89.2966491 70.0537393,88.5122379 L70.0537393,88.5122379 Z" id="形状结合" fill="#BAEAE2"></path>
                <path d="M100.105736,0.0495395843 L30.3592724,13.7390799 C29.2129152,13.964068 28.3641601,14.9371866 28.2950098,16.1050213 L24.004622,88.6879894 C23.9037138,90.3975914 25.4711192,91.7244313 27.1368715,91.339617 L46.5552818,86.8506291 C48.3721401,86.4309249 50.0138179,88.033805 49.6404067,89.8639821 L43.8712282,118.162205 C43.4829624,120.066779 45.2680629,121.695314 47.1248748,121.130406 L59.1185988,117.480314 C60.9779718,116.914893 62.7646089,118.548045 62.3712209,120.454159 L53.2029243,164.904324 C52.6292335,167.684736 56.3213438,169.200904 57.861089,166.817107 L58.8896347,165.225002 L115.722932,51.6134338 C116.674644,49.711168 115.033478,47.5420977 112.947702,47.9452806 L92.9596991,51.8094325 C91.0813738,52.1721842 89.4832351,50.4199961 90.0133869,48.5791981 L103.059219,3.27812702 C103.589883,1.43422483 101.98611,-0.319481491 100.105736,0.0495395843 Z" id="路径" fill="#36C8AF" fill-rule="nonzero"></path>
            </g>
        </g>
    </g>
</svg>